<svg width="1200" height="800" viewBox="0 0 1200 800" fill="none" xmlns="http://www.w3.org/2000/svg">
  <defs>
    <linearGradient id="bg" x1="120" y1="80" x2="1080" y2="720" gradientUnits="userSpaceOnUse">
      <stop stop-color="#0F4C81"/>
      <stop offset="1" stop-color="#16324F"/>
    </linearGradient>
    <linearGradient id="glow" x1="320" y1="180" x2="840" y2="620" gradientUnits="userSpaceOnUse">
      <stop stop-color="#7CD4FF" stop-opacity="0.85"/>
      <stop offset="1" stop-color="#FFE08A" stop-opacity="0.15"/>
    </linearGradient>
  </defs>
  <rect width="1200" height="800" rx="48" fill="url(#bg)"/>
  <circle cx="260" cy="170" r="150" fill="#7CD4FF" fill-opacity="0.18"/>
  <circle cx="980" cy="170" r="170" fill="#FFE08A" fill-opacity="0.18"/>
  <circle cx="920" cy="620" r="220" fill="#7CD4FF" fill-opacity="0.12"/>
  <rect x="170" y="170" width="860" height="460" rx="36" fill="#FFFFFF" fill-opacity="0.08" stroke="#FFFFFF" stroke-opacity="0.16"/>
  <rect x="225" y="225" width="280" height="280" rx="28" fill="url(#glow)" fill-opacity="0.18"/>
  <rect x="560" y="235" width="350" height="34" rx="17" fill="#FFFFFF" fill-opacity="0.85"/>
  <rect x="560" y="292" width="280" height="22" rx="11" fill="#FFFFFF" fill-opacity="0.38"/>
  <rect x="560" y="330" width="310" height="22" rx="11" fill="#FFFFFF" fill-opacity="0.38"/>
  <rect x="560" y="378" width="220" height="22" rx="11" fill="#FFFFFF" fill-opacity="0.38"/>
  <rect x="560" y="452" width="190" height="52" rx="26" fill="#FFE08A" fill-opacity="0.9"/>
  <text x="245" y="395" fill="#FFFFFF" font-family="Arial, Helvetica, sans-serif" font-size="48" font-weight="700">EventFlow</text>
  <text x="245" y="450" fill="#DCEAF7" font-family="Arial, Helvetica, sans-serif" font-size="24" font-weight="400">Professional demo event</text>
</svg>
